<svg aria-hidden="true" style="position: absolute; width: 0; height: 0; overflow: hidden;" version="1.1" xmlns="http://www.w3.org/2000/svg" xmlns:xlink="http://www.w3.org/1999/xlink">
<defs>
<symbol id="icon-cloud-fog-svgrepo-com" viewBox="0 0 32 32">
<path stroke-linejoin="round" stroke-linecap="round" stroke-miterlimit="4" stroke-width="2.6667" d="M4 24h5.333M13.333 24h14.667M6.667 28h9.333M21.333 28h4M11.733 20c-3.535 0-6.4-2.738-6.4-6.115 0-2.799 2.133-5.385 5.333-5.885 1.004-2.301 3.379-4 6.15-4 3.549 0 6.45 2.654 6.65 6 1.884 0.794 3.2 2.743 3.2 4.854 0 2.842-2.388 5.146-5.333 5.146h-9.6z"></path>
</symbol>
<symbol id="icon-cloud-svgrepo-com" viewBox="0 0 32 32">
<path stroke-linejoin="round" stroke-linecap="round" stroke-miterlimit="4" stroke-width="2.6667" d="M4 18.199c0 3.94 3.224 7.134 7.2 7.134h10.8c3.314 0 6-2.688 6-6.004 0-2.462-1.481-4.736-3.6-5.663-0.224-3.903-3.488-7-7.481-7-3.117 0-5.79 1.982-6.919 4.667-3.6 0.583-6 3.6-6 6.866z"></path>
</symbol>
</defs>
</svg>
